<?xml version="1.0" standalone="yes"?>
<svg xmlns="http://www.w3.org/2000/svg" width="225" height="225">
<path style="fill:#ffffff; stroke:none;" d="M0 0L0 225L225 225L225 0L0 0z"/>
<path style="fill:#d7e9d7; stroke:none;" d="M100.667 7.33333L101.333 7.66667L100.667 7.33333z"/>
<path style="fill:#acd1ad; stroke:none;" d="M102.667 7.33333L103.333 7.66667L102.667 7.33333z"/>
<path style="fill:#7dba80; stroke:none;" d="M104 7L104 8L107 8L104 7z"/>
<path style="fill:#43a147; stroke:none;" d="M107 7.42438C83.1197 10.5615 61.4786 16.6745 43 33.1736C32.4043 42.6343 23.2826 54.0549 17.3094 67C-17.4602 142.353 44.9934 226.917 127 216.714C178.295 210.332 218.633 163.681 217.981 112C217.275 55.9675 166.124 -0.342606 107 7.42438z"/>
<path style="fill:#7dba80; stroke:none;" d="M118 7L118 8L121 8L118 7z"/>
<path style="fill:#acd1ad; stroke:none;" d="M121.667 7.33333L122.333 7.66667L121.667 7.33333z"/>
<path style="fill:#d7e9d7; stroke:none;" d="M123.667 7.33333L124.333 7.66667L123.667 7.33333M93 8L94 9L93 8z"/>
<path style="fill:#acd1ad; stroke:none;" d="M94.6667 8.33333L95.3333 8.66667L94.6667 8.33333z"/>
<path style="fill:#7dba80; stroke:none;" d="M96 8L97 9L96 8M128 8L129 9L128 8z"/>
<path style="fill:#acd1ad; stroke:none;" d="M129.667 8.33333L130.333 8.66667L129.667 8.33333z"/>
<path style="fill:#d7e9d7; stroke:none;" d="M131 8L132 9L131 8M88 9L89 10L88 9z"/>
<path style="fill:#acd1ad; stroke:none;" d="M89 9L90 10L89 9z"/>
<path style="fill:#7dba80; stroke:none;" d="M90 9L91 10L90 9M134 9L135 10L134 9z"/>
<path style="fill:#acd1ad; stroke:none;" d="M135 9L136 10L135 9z"/>
<path style="fill:#d7e9d7; stroke:none;" d="M136 9L137 10L136 9M84 10L85 11L84 10z"/>
<path style="fill:#acd1ad; stroke:none;" d="M85 10L86 11L85 10z"/>
<path style="fill:#7dba80; stroke:none;" d="M86 10L87 11L86 10M138 10L139 11L138 10z"/>
<path style="fill:#acd1ad; stroke:none;" d="M139 10L140 11L139 10z"/>
<path style="fill:#d7e9d7; stroke:none;" d="M81 11L82 12L81 11z"/>
<path style="fill:#7dba80; stroke:none;" d="M82 11L83 12L82 11z"/>
<path style="fill:#acd1ad; stroke:none;" d="M142 11L143 12L142 11z"/>
<path style="fill:#d7e9d7; stroke:none;" d="M143 11L144 12L143 11M78 12L79 13L78 12z"/>
<path style="fill:#7dba80; stroke:none;" d="M79 12L80 13L79 12M145 12L146 13L145 12z"/>
<path style="fill:#d7e9d7; stroke:none;" d="M146 12L147 13L146 12M75 13L76 14L75 13z"/>
<path style="fill:#7dba80; stroke:none;" d="M76 13L77 14L76 13M148 13L149 14L148 13z"/>
<path style="fill:#d7e9d7; stroke:none;" d="M149 13L150 14L149 13z"/>
<path style="fill:#acd1ad; stroke:none;" d="M73 14L74 15L73 14M151 14L152 15L151 14z"/>
<path style="fill:#d7e9d7; stroke:none;" d="M70 15L71 16L70 15z"/>
<path style="fill:#7dba80; stroke:none;" d="M71 15L72 16L71 15M153 15L154 16L153 15z"/>
<path style="fill:#d7e9d7; stroke:none;" d="M154 15L155 16L154 15M68 16L69 17L68 16z"/>
<path style="fill:#7dba80; stroke:none;" d="M69 16L70 17L69 16z"/>
<path style="fill:#acd1ad; stroke:none;" d="M156 16L157 17L156 16M66 17L67 18L66 17M158 17L159 18L158 17M64 18L65 19L64 18M160 18L161 19L160 18z"/>
<path style="fill:#d7e9d7; stroke:none;" d="M62 19L63 20L62 19M162 19L163 20L162 19M60 20L61 21L60 20M164 20L165 21L164 20z"/>
<path style="fill:#7dba80; stroke:none;" d="M59 21L60 22L59 21M165 21L166 22L165 21z"/>
<path style="fill:#acd1ad; stroke:none;" d="M57 22L58 23L57 22M167 22L168 23L167 22z"/>
<path style="fill:#d7e9d7; stroke:none;" d="M55 23L56 24L55 23M169 23L170 24L169 23z"/>
<path style="fill:#acd1ad; stroke:none;" d="M54 24L55 25L54 24M170 24L171 25L170 24z"/>
<path style="fill:#d7e9d7; stroke:none;" d="M52 25L53 26L52 25M172 25L173 26L172 25z"/>
<path style="fill:#acd1ad; stroke:none;" d="M51 26L52 27L51 26M173 26L174 27L173 26z"/>
<path style="fill:#7dba80; stroke:none;" d="M50 27L51 28L50 27M174 27L175 28L174 27z"/>
<path style="fill:#d7e9d7; stroke:none;" d="M48 28L49 29L48 28M176 28L177 29L176 28z"/>
<path style="fill:#acd1ad; stroke:none;" d="M47 29L48 30L47 29M177 29L178 30L177 29z"/>
<path style="fill:#7dba80; stroke:none;" d="M46 30L47 31L46 30M178 30L179 31L178 30z"/>
<path style="fill:#d7e9d7; stroke:none;" d="M43 32L44 33L43 32M181 32L182 33L181 32z"/>
<path style="fill:#acd1ad; stroke:none;" d="M42 33L43 34L42 33z"/>
<path style="fill:#d7e9d7; stroke:none;" d="M182 33L183 34L182 33z"/>
<path style="fill:#acd1ad; stroke:none;" d="M41 34L42 35L41 34M183 34L184 35L183 34M40 35L41 36L40 35M184 35L185 36L184 35z"/>
<path style="fill:#7dba80; stroke:none;" d="M39 36L40 37L39 36z"/>
<path style="fill:#acd1ad; stroke:none;" d="M185 36L186 37L185 36z"/>
<path style="fill:#7dba80; stroke:none;" d="M38 37L39 38L38 37z"/>
<path style="fill:#acd1ad; stroke:none;" d="M186 37L187 38L186 37z"/>
<path style="fill:#7dba80; stroke:none;" d="M37 38L38 39L37 38M187 38L188 39L187 38M36 39L37 40L36 39z"/>
<path style="fill:#acd1ad; stroke:none;" d="M188 39L189 40L188 39M35 40L36 41L35 40M189 40L190 41L189 40M34 41L35 42L34 41M190 41L191 42L190 41z"/>
<path style="fill:#d7e9d7; stroke:none;" d="M33 42L34 43L33 42M191 42L192 43L191 42M32 43L33 44L32 43z"/>
<path style="fill:#7dba80; stroke:none;" d="M107 43L108 44L107 43z"/>
<path style="fill:#acd1ad; stroke:none;" d="M108 43L109 44L108 43z"/>
<path style="fill:#d7e9d7; stroke:none;" d="M109.667 43.3333L110.333 43.6667L109.667 43.3333z"/>
<path style="fill:#ffffff; stroke:none;" d="M111 43.5548C88.8019 45.957 91.8533 79.9875 114 77.8002C136.234 75.6042 133.136 41.1593 111 43.5548z"/>
<path style="fill:#d7e9d7; stroke:none;" d="M114.667 43.3333L115.333 43.6667L114.667 43.3333z"/>
<path style="fill:#acd1ad; stroke:none;" d="M116 43L117 44L116 43z"/>
<path style="fill:#7dba80; stroke:none;" d="M117 43L118 44L117 43z"/>
<path style="fill:#d7e9d7; stroke:none;" d="M192 43L193 44L192 43z"/>
<path style="fill:#acd1ad; stroke:none;" d="M105 44L106 45L105 44z"/>
<path style="fill:#d7e9d7; stroke:none;" d="M106 44L107 45L106 44M118 44L119 45L118 44z"/>
<path style="fill:#acd1ad; stroke:none;" d="M119 44L120 45L119 44M103 45L104 46L103 45M121 45L122 46L121 45z"/>
<path style="fill:#7dba80; stroke:none;" d="M30 46L31 47L30 46z"/>
<path style="fill:#d7e9d7; stroke:none;" d="M102 46L103 47L102 46M122 46L123 47L122 46z"/>
<path style="fill:#7dba80; stroke:none;" d="M194 46L195 47L194 46z"/>
<path style="fill:#acd1ad; stroke:none;" d="M29 47L30 48L29 47z"/>
<path style="fill:#7dba80; stroke:none;" d="M100 47L101 48L100 47M124 47L125 48L124 47z"/>
<path style="fill:#acd1ad; stroke:none;" d="M195 47L196 48L195 47z"/>
<path style="fill:#d7e9d7; stroke:none;" d="M28 48L29 49L28 48z"/>
<path style="fill:#7dba80; stroke:none;" d="M99 48L100 49L99 48M125 48L126 49L125 48z"/>
<path style="fill:#d7e9d7; stroke:none;" d="M196 48L197 49L196 48M98 50L99 51L98 50M126 50L127 51L126 50z"/>
<path style="fill:#7dba80; stroke:none;" d="M197 50L198 51L197 50z"/>
<path style="fill:#acd1ad; stroke:none;" d="M26 51L27 52L26 51M97 51L98 52L97 51M127 51L128 52L127 51M198 51L199 52L198 51z"/>
<path style="fill:#d7e9d7; stroke:none;" d="M25 52L26 53L25 52M199 52L200 53L199 52z"/>
<path style="fill:#acd1ad; stroke:none;" d="M96 53L97 54L96 53M128 53L129 54L128 53z"/>
<path style="fill:#7dba80; stroke:none;" d="M24 54L25 55L24 54z"/>
<path style="fill:#acd1ad; stroke:none;" d="M200 54L201 55L200 54z"/>
<path style="fill:#d7e9d7; stroke:none;" d="M23 55L24 56L23 55z"/>
<path style="fill:#7dba80; stroke:none;" d="M95 55L96 56L95 55M129 55L130 56L129 55z"/>
<path style="fill:#d7e9d7; stroke:none;" d="M201 55L202 56L201 55z"/>
<path style="fill:#acd1ad; stroke:none;" d="M95 56L96 57L95 56M129 56L130 57L129 56z"/>
<path style="fill:#7dba80; stroke:none;" d="M201 56L202 57L201 56z"/>
<path style="fill:#acd1ad; stroke:none;" d="M22 57L23 58L22 57z"/>
<path style="fill:#d7e9d7; stroke:none;" d="M95 57L96 58L95 57M129 57L130 58L129 57z"/>
<path style="fill:#acd1ad; stroke:none;" d="M202 57L203 58L202 57z"/>
<path style="fill:#7dba80; stroke:none;" d="M21 59L22 60L21 59M203 59L204 60L203 59z"/>
<path style="fill:#d7e9d7; stroke:none;" d="M20 60L21 61L20 60M204 60L205 61L204 60z"/>
<path style="fill:#7dba80; stroke:none;" d="M204 61L205 62L204 61z"/>
<path style="fill:#acd1ad; stroke:none;" d="M19 62L20 63L19 62z"/>
<path style="fill:#d7e9d7; stroke:none;" d="M205 62L206 63L205 62z"/>
<path style="fill:#acd1ad; stroke:none;" d="M18 64L19 65L18 64z"/>
<path style="fill:#d7e9d7; stroke:none;" d="M95 64L96 65L95 64M129 64L130 65L129 64M206 64L207 65L206 64z"/>
<path style="fill:#acd1ad; stroke:none;" d="M95 65L96 66L95 65M129 65L130 66L129 65M17 66L18 67L17 66z"/>
<path style="fill:#d7e9d7; stroke:none;" d="M207 66L208 67L207 66M96 67L97 68L96 67M128 67L129 68L128 67z"/>
<path style="fill:#acd1ad; stroke:none;" d="M16 68L17 69L16 68z"/>
<path style="fill:#7dba80; stroke:none;" d="M96 68L97 69L96 68M128 68L129 69L128 68z"/>
<path style="fill:#d7e9d7; stroke:none;" d="M208 68L209 69L208 68M97 69L98 70L97 69M127 69L128 70L127 69z"/>
<path style="fill:#7dba80; stroke:none;" d="M208 69L209 70L208 69z"/>
<path style="fill:#d7e9d7; stroke:none;" d="M15 70L16 71L15 70M209 70L210 71L209 70z"/>
<path style="fill:#7dba80; stroke:none;" d="M15 71L16 72L15 71M98 71L99 72L98 71M126 71L127 72L126 71M209 71L210 72L209 71z"/>
<path style="fill:#acd1ad; stroke:none;" d="M99 72L100 73L99 72M125 72L126 73L125 72M14 73L15 74L14 73M100 73L101 74L100 73M124 73L125 74L124 73M210 73L211 74L210 73z"/>
<path style="fill:#7dba80; stroke:none;" d="M101 74L102 75L101 74M123 74L124 75L123 74z"/>
<path style="fill:#d7e9d7; stroke:none;" d="M13 75L14 76L13 75M103 75L104 76L103 75M121 75L122 76L121 75M211 75L212 76L211 75z"/>
<path style="fill:#7dba80; stroke:none;" d="M13 76L14 77L13 76M104 76L105 77L104 76z"/>
<path style="fill:#d7e9d7; stroke:none;" d="M105 76L106 77L105 76M119 76L120 77L119 76z"/>
<path style="fill:#7dba80; stroke:none;" d="M120 76L121 77L120 76M211 76L212 77L211 76z"/>
<path style="fill:#acd1ad; stroke:none;" d="M107 77L108 78L107 77z"/>
<path style="fill:#d7e9d7; stroke:none;" d="M108 77L109 78L108 77M116 77L117 78L116 77z"/>
<path style="fill:#acd1ad; stroke:none;" d="M117 77L118 78L117 77z"/>
<path style="fill:#d7e9d7; stroke:none;" d="M12 78L13 79L12 78z"/>
<path style="fill:#7dba80; stroke:none;" d="M111 78L111 79L114 79L111 78z"/>
<path style="fill:#d7e9d7; stroke:none;" d="M212 78L213 79L212 78z"/>
<path style="fill:#7dba80; stroke:none;" d="M12 79L13 80L12 79M212 79L213 80L212 79z"/>
<path style="fill:#d7e9d7; stroke:none;" d="M11 81L12 82L11 81M213 81L214 82L213 81z"/>
<path style="fill:#7dba80; stroke:none;" d="M11 82L12 83L11 82z"/>
<path style="fill:#acd1ad; stroke:none;" d="M213 82L214 83L213 82z"/>
<path style="fill:#d7e9d7; stroke:none;" d="M10 84L11 85L10 84M214 84L215 85L214 84z"/>
<path style="fill:#acd1ad; stroke:none;" d="M10 85L11 86L10 85M214 85L215 86L214 85z"/>
<path style="fill:#7dba80; stroke:none;" d="M10 86L11 87L10 86M214 86L215 87L214 86z"/>
<path style="fill:#d7e9d7; stroke:none;" d="M9 88L10 89L9 88M215 88L216 89L215 88z"/>
<path style="fill:#acd1ad; stroke:none;" d="M9 89L10 90L9 89M215 89L216 90L215 89z"/>
<path style="fill:#7dba80; stroke:none;" d="M9 90L10 91L9 90M215 90L216 91L215 90z"/>
<path style="fill:#d7e9d7; stroke:none;" d="M8 93L9 94L8 93M216 93L217 94L216 93z"/>
<path style="fill:#acd1ad; stroke:none;" d="M8.33333 94.6667L8.66667 95.3333L8.33333 94.6667M216.333 94.6667L216.667 95.3333L216.333 94.6667z"/>
<path style="fill:#7dba80; stroke:none;" d="M8 96L9 97L8 96M216 96L217 97L216 96z"/>
<path style="fill:#acd1ad; stroke:none;" d="M95 97L95 98L130 98L95 97z"/>
<path style="fill:#ffffff; stroke:none;" d="M95 98L95 182L130 182L130 98L95 98z"/>
<path style="fill:#d7e9d7; stroke:none;" d="M7.33333 99.6667L7.66667 100.333L7.33333 99.6667M217.333 100.667L217.667 101.333L217.333 100.667z"/>
<path style="fill:#acd1ad; stroke:none;" d="M7 101L7 104L8 104L7 101M217.333 102.667L217.667 103.333L217.333 102.667z"/>
<path style="fill:#7dba80; stroke:none;" d="M7.33333 104.667L7.66667 105.333L7.33333 104.667M217 104L217 107L218 107L217 104M7 118L7 121L8 121L7 118M217 118L217 121L218 121L217 118z"/>
<path style="fill:#acd1ad; stroke:none;" d="M7.33333 121.667L7.66667 122.333L7.33333 121.667M217.333 121.667L217.667 122.333L217.333 121.667z"/>
<path style="fill:#d7e9d7; stroke:none;" d="M7.33333 123.667L7.66667 124.333L7.33333 123.667M217.333 123.667L217.667 124.333L217.333 123.667z"/>
<path style="fill:#7dba80; stroke:none;" d="M8 128L9 129L8 128M216 128L217 129L216 128z"/>
<path style="fill:#acd1ad; stroke:none;" d="M8.33333 129.667L8.66667 130.333L8.33333 129.667M216.333 129.667L216.667 130.333L216.333 129.667z"/>
<path style="fill:#d7e9d7; stroke:none;" d="M8 131L9 132L8 131M216 131L217 132L216 131z"/>
<path style="fill:#7dba80; stroke:none;" d="M9 134L10 135L9 134M215 134L216 135L215 134z"/>
<path style="fill:#acd1ad; stroke:none;" d="M9 135L10 136L9 135M215 135L216 136L215 135z"/>
<path style="fill:#d7e9d7; stroke:none;" d="M9 136L10 137L9 136M215 136L216 137L215 136z"/>
<path style="fill:#7dba80; stroke:none;" d="M10 138L11 139L10 138M214 138L215 139L214 138z"/>
<path style="fill:#acd1ad; stroke:none;" d="M10 139L11 140L10 139M214 139L215 140L214 139z"/>
<path style="fill:#d7e9d7; stroke:none;" d="M10 140L11 141L10 140M214 140L215 141L214 140z"/>
<path style="fill:#7dba80; stroke:none;" d="M11 142L12 143L11 142M213 142L214 143L213 142z"/>
<path style="fill:#d7e9d7; stroke:none;" d="M11 143L12 144L11 143M213 143L214 144L213 143z"/>
<path style="fill:#7dba80; stroke:none;" d="M12 145L13 146L12 145M212 145L213 146L212 145z"/>
<path style="fill:#d7e9d7; stroke:none;" d="M12 146L13 147L12 146M212 146L213 147L212 146z"/>
<path style="fill:#7dba80; stroke:none;" d="M13 148L14 149L13 148M211 148L212 149L211 148z"/>
<path style="fill:#d7e9d7; stroke:none;" d="M13 149L14 150L13 149M211 149L212 150L211 149z"/>
<path style="fill:#acd1ad; stroke:none;" d="M14 151L15 152L14 151M210 151L211 152L210 151z"/>
<path style="fill:#7dba80; stroke:none;" d="M15 153L16 154L15 153M209 153L210 154L209 153z"/>
<path style="fill:#d7e9d7; stroke:none;" d="M15 154L16 155L15 154M209 154L210 155L209 154z"/>
<path style="fill:#7dba80; stroke:none;" d="M208 155L209 156L208 155z"/>
<path style="fill:#d7e9d7; stroke:none;" d="M16 156L17 157L16 156M208 156L209 157L208 156z"/>
<path style="fill:#acd1ad; stroke:none;" d="M17 158L18 159L17 158M207 158L208 159L207 158M18 160L19 161L18 160M206 160L207 161L206 160M19 162L20 163L19 162z"/>
<path style="fill:#d7e9d7; stroke:none;" d="M205 162L206 163L205 162M20 164L21 165L20 164M204 164L205 165L204 164z"/>
<path style="fill:#7dba80; stroke:none;" d="M21 165L22 166L21 165M203 165L204 166L203 165z"/>
<path style="fill:#acd1ad; stroke:none;" d="M22 167L23 168L22 167M202 167L203 168L202 167z"/>
<path style="fill:#d7e9d7; stroke:none;" d="M23 169L24 170L23 169M201 169L202 170L201 169z"/>
<path style="fill:#7dba80; stroke:none;" d="M24 170L25 171L24 170z"/>
<path style="fill:#acd1ad; stroke:none;" d="M200 170L201 171L200 170z"/>
<path style="fill:#d7e9d7; stroke:none;" d="M25 172L26 173L25 172M199 172L200 173L199 172z"/>
<path style="fill:#acd1ad; stroke:none;" d="M26 173L27 174L26 173M198 173L199 174L198 173z"/>
<path style="fill:#7dba80; stroke:none;" d="M197 174L198 175L197 174z"/>
<path style="fill:#d7e9d7; stroke:none;" d="M28 176L29 177L28 176M196 176L197 177L196 176z"/>
<path style="fill:#acd1ad; stroke:none;" d="M29 177L30 178L29 177M195 177L196 178L195 177z"/>
<path style="fill:#7dba80; stroke:none;" d="M30 178L31 179L30 178M194 178L195 179L194 178z"/>
<path style="fill:#d7e9d7; stroke:none;" d="M32 181L33 182L32 181M192 181L193 182L192 181z"/>
<path style="fill:#acd1ad; stroke:none;" d="M33 182L34 183L33 182z"/>
<path style="fill:#d7e9d7; stroke:none;" d="M191 182L192 183L191 182z"/>
<path style="fill:#acd1ad; stroke:none;" d="M34 183L35 184L34 183M190 183L191 184L190 183M35 184L36 185L35 184M189 184L190 185L189 184z"/>
<path style="fill:#7dba80; stroke:none;" d="M36 185L37 186L36 185z"/>
<path style="fill:#acd1ad; stroke:none;" d="M188 185L189 186L188 185z"/>
<path style="fill:#7dba80; stroke:none;" d="M37 186L38 187L37 186M187 186L188 187L187 186M38 187L39 188L38 187M186 187L187 188L186 187M39 188L40 189L39 188z"/>
<path style="fill:#acd1ad; stroke:none;" d="M185 188L186 189L185 188M40 189L41 190L40 189M184 189L185 190L184 189M41 190L42 191L41 190M183 190L184 191L183 190M42 191L43 192L42 191z"/>
<path style="fill:#d7e9d7; stroke:none;" d="M182 191L183 192L182 191M43 192L44 193L43 192M181 192L182 193L181 192z"/>
<path style="fill:#7dba80; stroke:none;" d="M46 194L47 195L46 194M178 194L179 195L178 194z"/>
<path style="fill:#acd1ad; stroke:none;" d="M47 195L48 196L47 195M177 195L178 196L177 195z"/>
<path style="fill:#d7e9d7; stroke:none;" d="M48 196L49 197L48 196M176 196L177 197L176 196z"/>
<path style="fill:#7dba80; stroke:none;" d="M174 197L175 198L174 197z"/>
<path style="fill:#acd1ad; stroke:none;" d="M51 198L52 199L51 198M173 198L174 199L173 198z"/>
<path style="fill:#d7e9d7; stroke:none;" d="M52 199L53 200L52 199M172 199L173 200L172 199z"/>
<path style="fill:#7dba80; stroke:none;" d="M54 200L55 201L54 200z"/>
<path style="fill:#acd1ad; stroke:none;" d="M170 200L171 201L170 200z"/>
<path style="fill:#d7e9d7; stroke:none;" d="M55 201L56 202L55 201M169 201L170 202L169 201z"/>
<path style="fill:#acd1ad; stroke:none;" d="M57 202L58 203L57 202M167 202L168 203L167 202z"/>
<path style="fill:#7dba80; stroke:none;" d="M59 203L60 204L59 203M165 203L166 204L165 203z"/>
<path style="fill:#d7e9d7; stroke:none;" d="M60 204L61 205L60 204z"/>
<path style="fill:#7dba80; stroke:none;" d="M163 204L164 205L163 204z"/>
<path style="fill:#d7e9d7; stroke:none;" d="M164 204L165 205L164 204z"/>
<path style="fill:#acd1ad; stroke:none;" d="M62 205L63 206L62 205z"/>
<path style="fill:#d7e9d7; stroke:none;" d="M162 205L163 206L162 205z"/>
<path style="fill:#acd1ad; stroke:none;" d="M64 206L65 207L64 206M160 206L161 207L160 206M66 207L67 208L66 207z"/>
<path style="fill:#d7e9d7; stroke:none;" d="M158 207L159 208L158 207z"/>
<path style="fill:#acd1ad; stroke:none;" d="M68 208L69 209L68 208z"/>
<path style="fill:#7dba80; stroke:none;" d="M155 208L156 209L155 208z"/>
<path style="fill:#d7e9d7; stroke:none;" d="M156 208L157 209L156 208M70 209L71 210L70 209z"/>
<path style="fill:#7dba80; stroke:none;" d="M71 209L72 210L71 209M153 209L154 210L153 209z"/>
<path style="fill:#d7e9d7; stroke:none;" d="M154 209L155 210L154 209z"/>
<path style="fill:#acd1ad; stroke:none;" d="M73 210L74 211L73 210M151 210L152 211L151 210z"/>
<path style="fill:#d7e9d7; stroke:none;" d="M75 211L76 212L75 211z"/>
<path style="fill:#7dba80; stroke:none;" d="M76 211L77 212L76 211M148 211L149 212L148 211z"/>
<path style="fill:#d7e9d7; stroke:none;" d="M149 211L150 212L149 211M78 212L79 213L78 212z"/>
<path style="fill:#7dba80; stroke:none;" d="M79 212L80 213L79 212M145 212L146 213L145 212z"/>
<path style="fill:#d7e9d7; stroke:none;" d="M146 212L147 213L146 212M81 213L82 214L81 213z"/>
<path style="fill:#7dba80; stroke:none;" d="M82 213L83 214L82 213z"/>
<path style="fill:#acd1ad; stroke:none;" d="M142 213L143 214L142 213z"/>
<path style="fill:#d7e9d7; stroke:none;" d="M143 213L144 214L143 213M84 214L85 215L84 214z"/>
<path style="fill:#acd1ad; stroke:none;" d="M85 214L86 215L85 214z"/>
<path style="fill:#7dba80; stroke:none;" d="M86 214L87 215L86 214M138 214L139 215L138 214z"/>
<path style="fill:#acd1ad; stroke:none;" d="M139 214L140 215L139 214z"/>
<path style="fill:#d7e9d7; stroke:none;" d="M88 215L89 216L88 215z"/>
<path style="fill:#acd1ad; stroke:none;" d="M89 215L90 216L89 215z"/>
<path style="fill:#7dba80; stroke:none;" d="M90 215L91 216L90 215M134 215L135 216L134 215z"/>
<path style="fill:#acd1ad; stroke:none;" d="M135 215L136 216L135 215z"/>
<path style="fill:#d7e9d7; stroke:none;" d="M136 215L137 216L136 215M93 216L94 217L93 216z"/>
<path style="fill:#acd1ad; stroke:none;" d="M94.6667 216.333L95.3333 216.667L94.6667 216.333z"/>
<path style="fill:#7dba80; stroke:none;" d="M96 216L97 217L96 216M128 216L129 217L128 216z"/>
<path style="fill:#acd1ad; stroke:none;" d="M129.667 216.333L130.333 216.667L129.667 216.333z"/>
<path style="fill:#d7e9d7; stroke:none;" d="M131 216L132 217L131 216M100.667 217.333L101.333 217.667L100.667 217.333z"/>
<path style="fill:#acd1ad; stroke:none;" d="M102.667 217.333L103.333 217.667L102.667 217.333z"/>
<path style="fill:#7dba80; stroke:none;" d="M104 217L104 218L107 218L104 217M118 217L118 218L121 218L118 217z"/>
<path style="fill:#acd1ad; stroke:none;" d="M121.667 217.333L122.333 217.667L121.667 217.333z"/>
<path style="fill:#d7e9d7; stroke:none;" d="M123.667 217.333L124.333 217.667L123.667 217.333z"/>
</svg>
