<?xml version="1.0" standalone="yes"?>
<svg xmlns="http://www.w3.org/2000/svg" width="512" height="512">
<path style="fill:#ffffff; stroke:none;" d="M0 0L0 512L512 512L512 0L0 0z"/>
<path style="fill:#d2dac0; stroke:none;" d="M169 32L169 33L172 33L169 32z"/>
<path style="fill:#a1c157; stroke:none;" d="M144 144L160 144L160 112L224 112L224 144L240 144L240 112L304 112L304 144L320 144L320 112L384 112C384 124.548 380.508 143.142 384.589 155C389.36 168.864 399.865 175.723 400 192L464 192L464 256L400 256L400 272L464 272L464 336L400 336L400 352L480 352L480 126L480 76C480 63.5767 480.226 51.5568 470.957 42.0154C454.767 25.3503 421.22 32 400 32L223 32C203.237 32 170.759 25.7023 155.004 40.1049C143.608 50.5224 144 63.7326 144 78L144 144z"/>
<path style="fill:#d2dac0; stroke:none;" d="M452 32L452 33L455 33L452 32M166 33L167 34L166 33M457 33L458 34L457 33M163 34L164 35L163 34M460 34L461 35L460 34M161 35L162 36L161 35M462 35L463 36L462 35M159 36L160 37L159 36M464 36L465 37L464 36M156 38L157 39L156 38M467 38L468 39L467 38M155 39L156 40L155 39M468 39L469 40L468 39M154 40L155 41L154 40M469 40L470 41L469 40M153 41L154 42L153 41M470 41L471 42L470 41M152 42L153 43L152 42M471 42L472 43L471 42M151 43L152 44L151 43M472 43L473 44L472 43M150 44L151 45L150 44M473 44L474 45L473 44M148 47L149 48L148 47M475 47L476 48L475 47M147 49L148 50L147 49M476 49L477 50L476 49M146 51L147 52L146 51M477 51L478 52L477 51M145 54L146 55L145 54M478 54L479 55L478 54M144 57L144 60L145 60L144 57M479 57L479 60L480 60L479 57z"/>
<path style="fill:#ffffff; stroke:none;" d="M400 112L400 176L464 176L464 112L400 112z"/>
<path style="fill:#d2dac0; stroke:none;" d="M384 156L385 157L384 156M385 157L386 158L385 157M386 158L387 159L386 158M387 159L388 160L387 159M73 160L74 161L73 160z"/>
<path style="fill:#7e7e7e; stroke:none;" d="M74.6667 160.333L75.3333 160.667L74.6667 160.333z"/>
<path style="fill:#252525; stroke:none;" d="M48 480L384 480L384 260L384 205C384 194.291 384.766 183.185 378.211 174C363.62 153.557 331.837 160 310 160L124 160C101.161 160 66.425 152.882 52.4792 176C46.8664 185.304 48 196.599 48 207L48 263L48 480z"/>
<path style="fill:#7e7e7e; stroke:none;" d="M356.667 160.333L357.333 160.667L356.667 160.333z"/>
<path style="fill:#d2dac0; stroke:none;" d="M358 160L359 161L358 160M69 161L70 162L69 161z"/>
<path style="fill:#7e7e7e; stroke:none;" d="M70 161L71 162L70 161M361 161L362 162L361 161z"/>
<path style="fill:#d2dac0; stroke:none;" d="M362 161L363 162L362 161z"/>
<path style="fill:#7e7e7e; stroke:none;" d="M67 162L68 163L67 162M364 162L365 163L364 162M65 163L66 164L65 163M366 163L367 164L366 163z"/>
<path style="fill:#d2dac0; stroke:none;" d="M390 163L391 164L390 163z"/>
<path style="fill:#a1c157; stroke:none;" d="M63 164L64 165L63 164M368 164L369 165L368 164z"/>
<path style="fill:#d2dac0; stroke:none;" d="M391 164L392 165L391 164M61 165L62 166L61 165z"/>
<path style="fill:#7e7e7e; stroke:none;" d="M62 165L63 166L62 165M369 165L370 166L369 165z"/>
<path style="fill:#d2dac0; stroke:none;" d="M370 165L371 166L370 165z"/>
<path style="fill:#a1c157; stroke:none;" d="M60 166L61 167L60 166M371 166L372 167L371 166z"/>
<path style="fill:#d2dac0; stroke:none;" d="M392 166L393 167L392 166z"/>
<path style="fill:#7e7e7e; stroke:none;" d="M59 167L60 168L59 167M372 167L373 168L372 167M58 168L59 169L58 168M373 168L374 169L373 168M57 169L58 170L57 169M374 169L375 170L374 169z"/>
<path style="fill:#d2dac0; stroke:none;" d="M394 169L395 170L394 169z"/>
<path style="fill:#7e7e7e; stroke:none;" d="M56 170L57 171L56 170M375 170L376 171L375 170M55 171L56 172L55 171M376 171L377 172L376 171z"/>
<path style="fill:#d2dac0; stroke:none;" d="M395 171L396 172L395 171z"/>
<path style="fill:#a1c157; stroke:none;" d="M54 172L55 173L54 172M377 172L378 173L377 172z"/>
<path style="fill:#d2dac0; stroke:none;" d="M53 173L54 174L53 173M378 173L379 174L378 173M396.333 173.667L396.667 174.333L396.333 173.667z"/>
<path style="fill:#7e7e7e; stroke:none;" d="M53 174L54 175L53 174M378 174L379 175L378 174z"/>
<path style="fill:#a1c157; stroke:none;" d="M52 175L53 176L52 175M379 175L380 176L379 175z"/>
<path style="fill:#d2dac0; stroke:none;" d="M397.333 176.667L397.667 177.333L397.333 176.667z"/>
<path style="fill:#7e7e7e; stroke:none;" d="M51 177L52 178L51 177M380 177L381 178L380 177M50 179L51 180L50 179M381 179L382 180L381 179z"/>
<path style="fill:#d2dac0; stroke:none;" d="M398.333 179.667L398.667 180.333L398.333 179.667M49 181L50 182L49 181M382 181L383 182L382 181z"/>
<path style="fill:#7e7e7e; stroke:none;" d="M49 182L50 183L49 182M382 182L383 183L382 182z"/>
<path style="fill:#d2dac0; stroke:none;" d="M48 184L49 185L48 184M383.333 184.667L383.667 185.333L383.333 184.667M399 184L399 187L400 187L399 184z"/>
<path style="fill:#a1c157; stroke:none;" d="M48 185L49 186L48 185z"/>
<path style="fill:#7e7e7e; stroke:none;" d="M48.3333 186.667L48.6667 187.333L48.3333 186.667M383.333 186.667L383.667 187.333L383.333 186.667z"/>
<path style="fill:#ffffff; stroke:none;" d="M64 240L64 304L128 304L128 240L64 240M144 240L144 304L208 304L208 240L144 240M224 240L224 304L288 304L288 240L224 240M304 240L304 304L368 304L368 240L304 240M64 320L64 384L128 384L128 320L64 320M144 320L144 384L208 384L208 320L144 320M224 320L224 384L288 384L288 320L224 320M304 320L304 384L368 384L368 320L304 320M64 400L64 464L128 464L128 400L64 400M144 400L144 464L208 464L208 400L144 400M224 400L224 464L288 464L288 400L224 400M304 400L304 464L368 464L368 400L304 400z"/>
</svg>
